<?xml version="1.0" encoding="utf-8"?>
<!-- Generator: Adobe Illustrator 28.0.0, SVG Export Plug-In . SVG Version: 6.00 Build 0)  -->
<svg version="1.1" id="Camada_1" xmlns="http://www.w3.org/2000/svg" xmlns:xlink="http://www.w3.org/1999/xlink" x="0px" y="0px"
	 viewBox="0 0 595.3 841.9" style="enable-background:new 0 0 595.3 841.9;" xml:space="preserve">
<path d="M463.5,250.8c-25.2,0-48.4,13.8-60.5,36.1l-36.8,150.8l-30.9-146.5c-15.5-30.5-58.9-34.6-74.6-4.1l-32.4,151.8L200,338.5
	l0,0l-21.7-77.3c-3.3-11.8-15.7-19.8-27.4-16.5l-7.7,2.2c-11.1,3.1-18.2,14.3-15.9,25.4l0,0l0,0c0.1,0.7,0.3,1.3,0.5,2l2.2,7.1
	l60.7,199.6c14.9,28.3,56.8,28.8,72.5,1l33.1-128l32.1,127.8c15.2,27.8,57,27.9,72.3,0.1l47.5-169.2c8.6-15.6,32.2-9.5,32.2,8.3
	l0.1,140.4c0,42.6-34.6,77.2-77,77.2h-237c-42.4,0-77-34.7-77-77.2V262.8c0-42.6,34.6-77.2,77-77.2h147h196.4h4.1
	c9.9,0,18-8.1,18-18v-16.5c0-9.9-8.1-18-18-18H313.5c-0.7,0-1.3,0-1.9,0.1H166.5c-71.3,0-129.2,58.1-129.2,129.6v198.3
	c0,71.6,57.8,129.6,129.2,129.6h236.7c71.4,0,129.2-58,129.2-129.6V319.9C532.4,281.7,501.6,250.8,463.5,250.8"/>
</svg>
